# ProBuilder 4.5.2
# https://unity3d.com/unity/features/worldbuilding/probuilder
# 2022. 03. 09. 14:04:23

mtllib ./Torus.mtl
o Torus

g Torus
v -1 0 0
v -0.95 0.08660255 0
v -0.85 0.08660254 0
v -0.8 -8.742278E-09 0
v -0.85 -0.08660255 0
v -0.95 -0.08660255 0
v -0.9396926 0 -0.3420201
v -0.892708 0.08660255 -0.3249191
v -0.7987387 0.08660254 -0.2907171
v -0.751754 -8.742278E-09 -0.2736161
v -0.7987387 -0.08660255 -0.2907171
v -0.892708 -0.08660255 -0.3249191
v -0.7660445 0 -0.6427876
v -0.7277423 0.08660255 -0.6106482
v -0.6511378 0.08660254 -0.5463694
v -0.6128355 -8.742278E-09 -0.51423
v -0.6511378 -0.08660255 -0.5463694
v -0.7277423 -0.08660255 -0.6106482
v -0.5 0 -0.8660254
v -0.475 0.08660255 -0.8227241
v -0.425 0.08660254 -0.7361215
v -0.4 -8.742278E-09 -0.6928203
v -0.425 -0.08660255 -0.7361215
v -0.475 -0.08660255 -0.8227241
v -0.1736482 0 -0.9848077
v -0.1649658 0.08660255 -0.9355673
v -0.147601 0.08660254 -0.8370865
v -0.1389186 -8.742278E-09 -0.7878461
v -0.147601 -0.08660255 -0.8370865
v -0.1649658 -0.08660255 -0.9355673
v 0.1736481 0 -0.9848078
v 0.1649657 0.08660255 -0.9355674
v 0.1476009 0.08660254 -0.8370866
v 0.1389185 -8.742278E-09 -0.7878462
v 0.1476009 -0.08660255 -0.8370866
v 0.1649657 -0.08660255 -0.9355674
v 0.5000001 0 -0.8660254
v 0.4750001 0.08660255 -0.8227241
v 0.4250001 0.08660254 -0.7361215
v 0.4000001 -8.742278E-09 -0.6928203
v 0.4250001 -0.08660255 -0.7361215
v 0.4750001 -0.08660255 -0.8227241
v 0.7660444 0 -0.6427876
v 0.7277422 0.08660255 -0.6106483
v 0.6511377 0.08660254 -0.5463695
v 0.6128354 -8.742278E-09 -0.5142301
v 0.6511377 -0.08660255 -0.5463695
v 0.7277422 -0.08660255 -0.6106483
v 0.9396925 0 -0.3420202
v 0.8927078 0.08660255 -0.3249192
v 0.7987386 0.08660254 -0.2907172
v 0.7517539 -8.742278E-09 -0.2736162
v 0.7987386 -0.08660255 -0.2907172
v 0.8927078 -0.08660255 -0.3249192
v 1 0 8.742278E-08
v 0.95 0.08660255 8.305164E-08
v 0.8499999 0.08660254 7.430936E-08
v 0.8 -8.742278E-09 6.993822E-08
v 0.8499999 -0.08660255 7.430936E-08
v 0.95 -0.08660255 8.305164E-08
v 0.9396925 0 0.3420202
v 0.8927078 0.08660255 0.3249191
v 0.7987386 0.08660254 0.2907171
v 0.7517539 -8.742278E-09 0.2736161
v 0.7987386 -0.08660255 0.2907171
v 0.8927078 -0.08660255 0.3249191
v 0.7660444 0 0.6427876
v 0.7277422 0.08660255 0.6106482
v 0.6511377 0.08660254 0.5463694
v 0.6128354 -8.742278E-09 0.51423
v 0.6511377 -0.08660255 0.5463694
v 0.7277422 -0.08660255 0.6106482
v 0.5 0 0.8660255
v 0.475 0.08660255 0.8227242
v 0.425 0.08660254 0.7361217
v 0.4 -8.742278E-09 0.6928204
v 0.425 -0.08660255 0.7361217
v 0.475 -0.08660255 0.8227242
v 0.1736481 0 0.9848078
v 0.1649657 0.08660255 0.9355674
v 0.1476009 0.08660254 0.8370866
v 0.1389185 -8.742278E-09 0.7878462
v 0.1476009 -0.08660255 0.8370866
v 0.1649657 -0.08660255 0.9355674
v -0.1736481 0 0.9848078
v -0.1649657 0.08660255 0.9355674
v -0.1476009 0.08660254 0.8370866
v -0.1389185 -8.742278E-09 0.7878462
v -0.1476009 -0.08660255 0.8370866
v -0.1649657 -0.08660255 0.9355674
v -0.4999999 0 0.8660255
v -0.4749999 0.08660255 0.8227242
v -0.4249999 0.08660254 0.7361217
v -0.3999999 -8.742278E-09 0.6928204
v -0.4249999 -0.08660255 0.7361217
v -0.4749999 -0.08660255 0.8227242
v -0.7660444 0 0.6427878
v -0.7277421 0.08660255 0.6106483
v -0.6511377 0.08660254 0.5463696
v -0.6128355 -8.742278E-09 0.5142302
v -0.6511377 -0.08660255 0.5463696
v -0.7277421 -0.08660255 0.6106483
v -0.9396926 0 0.3420204
v -0.8927079 0.08660255 0.3249193
v -0.7987386 0.08660254 0.2907173
v -0.751754 -8.742278E-09 0.2736163
v -0.7987386 -0.08660255 0.2907173
v -0.8927079 -0.08660255 0.3249193

vt 0 0
vt 0 0.08660255
vt -0.05000001 0
vt -0.15 0
vt 0 -0.08660255
vt 0.15 0
vt 0.05000001 0
vt -0.3420201 0
vt -0.3249191 0.08660255
vt -0.107292 -0.3249191
vt -0.2012613 -0.2907171
vt 0.2907171 0.08660254
vt 0.2736161 -8.742278E-09
vt 0.2907171 -0.08660255
vt 0.2012613 -0.2907171
vt 0.107292 -0.3249191
vt -0.3249191 -0.08660255
vt -0.6427876 0
vt -0.6106482 0.08660255
vt -0.2722577 -0.6106482
vt -0.3488622 -0.5463694
vt 0.5463694 0.08660254
vt 0.51423 -8.742278E-09
vt 0.5463694 -0.08660255
vt 0.3488622 -0.5463694
vt 0.2722577 -0.6106482
vt -0.6106482 -0.08660255
vt -0.2339555 0
vt -0.2722577 0.08660255
vt 0.3488622 0.08660254
vt 0.3871645 -8.742278E-09
vt 0.3488622 -0.08660255
vt -0.2722577 -0.08660255
vt -0.5 0
vt -0.525 0.08660255
vt -0.525 -0.8227241
vt -0.575 -0.7361215
vt 0.575 0.08660254
vt 0.6 -8.742278E-09
vt 0.575 -0.08660255
vt 0.575 -0.7361215
vt 0.525 -0.8227241
vt -0.525 -0.08660255
vt -0.8263518 0
vt -0.8350342 0.08660255
vt -0.8350342 -0.9355673
vt -0.852399 -0.8370865
vt 0.852399 0.08660254
vt 0.8610814 -8.742278E-09
vt 0.852399 -0.08660255
vt 0.852399 -0.8370865
vt 0.8350342 -0.9355673
vt -0.8350342 -0.08660255
vt -1.173648 0
vt -1.164966 0.08660255
vt -1.164966 -0.9355674
vt -1.147601 -0.8370866
vt 1.147601 0.08660254
vt 1.138919 -8.742278E-09
vt 1.147601 -0.08660255
vt 1.147601 -0.8370866
vt 1.164966 -0.9355674
vt -1.164966 -0.08660255
vt -1.5 0
vt -1.475 0.08660255
vt -1.475 -0.8227241
vt -1.425 -0.7361215
vt 1.425 0.08660254
vt 1.4 -8.742278E-09
vt 1.425 -0.08660255
vt 1.425 -0.7361215
vt 1.475 -0.8227241
vt -1.475 -0.08660255
vt -1.766044 0
vt -1.727742 0.08660255
vt -1.727742 -0.6106483
vt -1.651138 -0.5463695
vt 1.651138 0.08660254
vt 1.612835 -8.742278E-09
vt 1.651138 -0.08660255
vt 1.651138 -0.5463695
vt 1.727742 -0.6106483
vt -1.727742 -0.08660255
vt 0.6427876 0
vt 0.6106483 0.08660255
vt -0.5463695 0.08660254
vt -0.5142301 -8.742278E-09
vt -0.5463695 -0.08660255
vt 0.6106483 -0.08660255
vt 0.3420202 0
vt 0.3249192 0.08660255
vt -1.892708 -0.3249192
vt -1.798739 -0.2907172
vt -0.2907172 0.08660254
vt -0.2736162 -8.742278E-09
vt -0.2907172 -0.08660255
vt 1.798739 -0.2907172
vt 1.892708 -0.3249192
vt 0.3249192 -0.08660255
vt -1.95 8.305164E-08
vt -1.85 7.430936E-08
vt 1.85 7.430936E-08
vt 1.95 8.305164E-08
vt -1.892708 0.3249191
vt -1.798739 0.2907171
vt 1.798739 0.2907171
vt 1.892708 0.3249191
vt -1.727742 0.6106482
vt -1.651138 0.5463694
vt 1.651138 0.5463694
vt 1.727742 0.6106482
vt 1.766044 0
vt 1.727742 0.08660255
vt -1.651138 0.08660254
vt -1.612835 -8.742278E-09
vt -1.651138 -0.08660255
vt 1.727742 -0.08660255
vt 1.5 0
vt 1.475 0.08660255
vt -1.475 0.8227242
vt -1.425 0.7361217
vt -1.425 0.08660254
vt -1.4 -8.742278E-09
vt -1.425 -0.08660255
vt 1.425 0.7361217
vt 1.475 0.8227242
vt 1.475 -0.08660255
vt 1.173648 0
vt 1.164966 0.08660255
vt -1.164966 0.9355674
vt -1.147601 0.8370866
vt -1.147601 0.08660254
vt -1.138919 -8.742278E-09
vt -1.147601 -0.08660255
vt 1.147601 0.8370866
vt 1.164966 0.9355674
vt 1.164966 -0.08660255
vt 0.8263519 0
vt 0.8350343 0.08660255
vt -0.8350343 0.9355674
vt -0.8523991 0.8370866
vt -0.8523991 0.08660254
vt -0.8610815 -8.742278E-09
vt -0.8523991 -0.08660255
vt 0.8523991 0.8370866
vt 0.8350343 0.9355674
vt 0.8350343 -0.08660255
vt 0.5000001 0
vt 0.5250001 0.08660255
vt -0.5250001 0.8227242
vt -0.5750001 0.7361217
vt -0.5750001 0.08660254
vt -0.6000001 -8.742278E-09
vt -0.5750001 -0.08660255
vt 0.5750001 0.7361217
vt 0.5250001 0.8227242
vt 0.5250001 -0.08660255
vt 0.2339556 0
vt 0.2722579 0.08660255
vt -0.2722579 0.6106483
vt -0.3488623 0.5463696
vt -0.3488623 0.08660254
vt -0.3871645 -8.742278E-09
vt -0.3488623 -0.08660255
vt 0.3488623 0.5463696
vt 0.2722579 0.6106483
vt 0.2722579 -0.08660255
vt -0.1072921 0.3249193
vt -0.2012614 0.2907173
vt 0.2012614 0.2907173
vt 0.1072921 0.3249193

vn -1 1.131379E-07 -8.702917E-09
vn -0.4971159 0.8676841 1.781753E-08
vn 0.4971159 0.8676841 -3.461087E-08
vn 1 6.092043E-08 -2.610875E-08
vn 0.4971159 -0.8676842 -3.893723E-08
vn -0.4971159 -0.8676841 1.730544E-08
vn -0.9396926 6.962333E-08 -0.3420201
vn -0.4671362 0.8676841 -0.1700236
vn 0.4671361 0.8676842 0.1700236
vn 0.9396926 8.702919E-09 0.3420201
vn 0.4671361 -0.8676842 0.1700236
vn -0.4671362 -0.8676841 -0.1700237
vn -0.7660445 2.610875E-08 -0.6427876
vn -0.3808129 0.8676841 -0.31954
vn 0.3808128 0.8676842 0.3195399
vn 0.7660444 -7.832627E-08 0.6427876
vn 0.3808128 -0.8676842 0.3195399
vn -0.3808129 -0.8676841 -0.31954
vn -0.5 2.610875E-08 -0.8660254
vn -0.2485579 0.8676841 -0.430515
vn 0.248558 0.8676841 0.4305151
vn 0.5 -4.351459E-08 0.8660254
vn 0.2485579 -0.8676842 0.430515
vn -0.2485579 -0.8676841 -0.4305151
vn -0.1736483 8.702918E-09 -0.9848078
vn -0.08632329 0.8676842 -0.4895636
vn 0.08632332 0.8676842 0.4895636
vn 0.1736483 -7.832626E-08 0.9848077
vn 0.08632334 -0.8676842 0.4895636
vn -0.08632334 -0.8676841 -0.4895636
vn 0.173648 5.221751E-08 -0.9848078
vn 0.08632316 0.8676842 -0.4895636
vn -0.08632322 0.8676841 0.4895638
vn -0.173648 -2.610875E-08 0.9848078
vn -0.08632325 -0.8676841 0.4895637
vn 0.08632319 -0.8676841 -0.4895636
vn 0.5000001 6.962334E-08 -0.8660253
vn 0.248558 0.8676841 -0.4305151
vn -0.2485581 0.8676841 0.4305151
vn -0.5000002 1.566525E-07 0.8660253
vn -0.248558 -0.8676842 0.4305149
vn 0.248558 -0.8676841 -0.4305151
vn 0.7660446 -3.481166E-08 -0.6427875
vn 0.3808129 0.8676841 -0.3195399
vn -0.3808129 0.8676842 0.3195398
vn -0.7660446 1.740584E-08 0.6427875
vn -0.3808127 -0.8676842 0.3195398
vn 0.3808131 -0.867684 -0.31954
vn 0.9396926 6.962334E-08 -0.3420202
vn 0.4671361 0.8676842 -0.1700236
vn -0.4671361 0.8676842 0.1700236
vn -0.9396926 -1.914642E-07 0.3420203
vn -0.4671361 -0.8676842 0.1700236
vn 0.4671361 -0.8676841 -0.1700238
vn 0.5000001 -8.702917E-09 0.8660253
vn -0.5000002 -2.001671E-07 -0.8660253
vn -0.4999999 0 0.8660255
vn 0.4999998 -2.610875E-08 -0.8660254

usemtl Holo_Ring
f 2/2/2 8/9/8 7/8/7 1/1/1
f 3/4/3 9/11/9 8/10/8 2/3/2
f 4/1/4 10/13/10 9/12/9 3/2/3
f 5/5/5 11/14/11 10/13/10 4/1/4
f 6/7/6 12/16/12 11/15/11 5/6/5
f 1/1/1 7/8/7 12/17/12 6/5/6
f 8/9/8 14/19/14 13/18/13 7/8/7
f 9/11/9 15/21/15 14/20/14 8/10/8
f 10/13/10 16/23/16 15/22/15 9/12/9
f 11/14/11 17/24/17 16/23/16 10/13/10
f 12/16/12 18/26/18 17/25/17 11/15/11
f 7/8/7 13/18/13 18/27/18 12/17/12
f 14/29/14 20/35/20 19/34/19 13/28/13
f 15/21/15 21/37/21 20/36/20 14/20/14
f 16/31/16 22/39/22 21/38/21 15/30/15
f 17/32/17 23/40/23 22/39/22 16/31/16
f 18/26/18 24/42/24 23/41/23 17/25/17
f 13/28/13 19/34/19 24/43/24 18/33/18
f 20/35/20 26/45/26 25/44/25 19/34/19
f 21/37/21 27/47/27 26/46/26 20/36/20
f 22/39/22 28/49/28 27/48/27 21/38/21
f 23/40/23 29/50/29 28/49/28 22/39/22
f 24/42/24 30/52/30 29/51/29 23/41/23
f 19/34/19 25/44/25 30/53/30 24/43/24
f 26/45/26 32/55/32 31/54/31 25/44/25
f 27/47/27 33/57/33 32/56/32 26/46/26
f 28/49/28 34/59/34 33/58/33 27/48/27
f 29/50/29 35/60/35 34/59/34 28/49/28
f 30/52/30 36/62/36 35/61/35 29/51/29
f 25/44/25 31/54/31 36/63/36 30/53/30
f 32/55/32 38/65/38 37/64/37 31/54/31
f 33/57/33 39/67/39 38/66/38 32/56/32
f 34/59/34 40/69/40 39/68/39 33/58/33
f 35/60/35 41/70/41 40/69/40 34/59/34
f 36/62/36 42/72/42 41/71/41 35/61/35
f 31/54/31 37/64/37 42/73/42 36/63/36
f 38/65/38 44/75/44 43/74/43 37/64/37
f 39/67/39 45/77/45 44/76/44 38/66/38
f 40/69/40 46/79/46 45/78/45 39/68/39
f 41/70/41 47/80/47 46/79/46 40/69/40
f 42/72/42 48/82/48 47/81/47 41/71/41
f 37/64/37 43/74/43 48/83/48 42/73/42
f 44/85/44 50/91/50 49/90/49 43/84/43
f 45/77/45 51/93/51 50/92/50 44/76/44
f 46/87/46 52/95/52 51/94/51 45/86/45
f 47/88/47 53/96/53 52/95/52 46/87/46
f 48/82/48 54/98/54 53/97/53 47/81/47
f 43/84/43 49/90/49 54/99/54 48/89/48
f 50/91/50 56/2/3 55/1/4 49/90/49
f 51/93/51 57/101/2 56/100/3 50/92/50
f 52/95/52 58/1/1 57/2/2 51/94/51
f 53/96/53 59/5/6 58/1/1 52/95/52
f 54/98/54 60/103/5 59/102/6 53/97/53
f 49/90/49 55/1/4 60/5/5 54/99/54
f 56/2/3 62/9/9 61/8/10 55/1/4
f 57/101/2 63/105/8 62/104/9 56/100/3
f 58/1/1 64/13/7 63/12/8 57/2/2
f 59/5/6 65/14/12 64/13/7 58/1/1
f 60/103/5 66/107/11 65/106/12 59/102/6
f 55/1/4 61/8/10 66/17/11 60/5/5
f 62/9/9 68/19/15 67/18/16 61/8/10
f 63/105/8 69/109/14 68/108/15 62/104/9
f 64/13/7 70/23/13 69/22/14 63/12/8
f 65/14/12 71/24/18 70/23/13 64/13/7
f 66/107/11 72/111/17 71/110/18 65/106/12
f 61/8/10 67/18/16 72/27/17 66/17/11
f 68/113/15 74/119/21 73/118/55 67/112/16
f 69/109/14 75/121/20 74/120/21 68/108/15
f 70/115/13 76/123/56 75/122/20 69/114/14
f 71/116/18 77/124/24 76/123/56 70/115/13
f 72/111/17 78/126/23 77/125/24 71/110/18
f 67/112/16 73/118/55 78/127/23 72/117/17
f 74/119/21 80/129/27 79/128/28 73/118/55
f 75/121/20 81/131/26 80/130/27 74/120/21
f 76/123/56 82/133/25 81/132/26 75/122/20
f 77/124/24 83/134/30 82/133/25 76/123/56
f 78/126/23 84/136/29 83/135/30 77/125/24
f 73/118/55 79/128/28 84/137/29 78/127/23
f 80/129/27 86/139/33 85/138/34 79/128/28
f 81/131/26 87/141/32 86/140/33 80/130/27
f 82/133/25 88/143/31 87/142/32 81/132/26
f 83/134/30 89/144/36 88/143/31 82/133/25
f 84/136/29 90/146/35 89/145/36 83/135/30
f 79/128/28 85/138/34 90/147/35 84/137/29
f 86/139/33 92/149/39 91/148/57 85/138/34
f 87/141/32 93/151/38 92/150/39 86/140/33
f 88/143/31 94/153/58 93/152/38 87/142/32
f 89/144/36 95/154/42 94/153/58 88/143/31
f 90/146/35 96/156/41 95/155/42 89/145/36
f 85/138/34 91/148/57 96/157/41 90/147/35
f 92/149/39 98/159/45 97/158/46 91/148/57
f 93/151/38 99/161/44 98/160/45 92/150/39
f 94/153/58 100/163/43 99/162/44 93/152/38
f 95/154/42 101/164/48 100/163/43 94/153/58
f 96/156/41 102/166/47 101/165/48 95/155/42
f 91/148/57 97/158/46 102/167/47 96/157/41
f 98/85/45 104/91/51 103/90/52 97/84/46
f 99/161/44 105/169/50 104/168/51 98/160/45
f 100/87/43 106/95/49 105/94/50 99/86/44
f 101/88/48 107/96/54 106/95/49 100/87/43
f 102/166/47 108/171/53 107/170/54 101/165/48
f 97/84/46 103/90/52 108/99/53 102/89/47
f 104/91/51 2/2/2 1/1/1 103/90/52
f 105/169/50 3/4/3 2/3/2 104/168/51
f 106/95/49 4/1/4 3/2/3 105/94/50
f 107/96/54 5/5/5 4/1/4 106/95/49
f 108/171/53 6/7/6 5/6/5 107/170/54
f 103/90/52 1/1/1 6/5/6 108/99/53

